<svg width="800" height="800" viewBox="0 0 800 800" fill="none" xmlns="http://www.w3.org/2000/svg">
<g clip-path="url(#clip0_293_2)">
<path d="M800 0H0V800H800V0Z" fill="white"/>
<path fill-rule="evenodd" clip-rule="evenodd" d="M0 400C0 179.086 179.086 0 400 0C620.912 0 800 179.086 800 400C800 620.912 620.912 800 400 800C179.086 800 0 620.912 0 400ZM399.996 160C311.631 160 239.996 231.634 239.996 320C239.996 408.364 311.631 480 399.996 480C488.36 480 559.996 408.364 559.996 320C559.996 231.634 488.36 160 399.996 160ZM604.46 559.896C634.772 579.416 633.292 621.964 605.688 645.152C550.068 691.864 478.324 720 400.004 720C322.204 720 250.886 692.236 195.422 646.072C167.572 622.892 166.097 580.128 196.54 560.48C206.018 554.364 216.338 549.004 227.54 544.388C272.606 525.808 330.168 520 400 520C470.184 520 528.072 525.436 573.256 543.816C584.544 548.408 594.936 553.764 604.46 559.896Z" fill="#325573"/>
</g>
<defs>
<clipPath id="clip0_293_2">
<rect width="800" height="800" fill="white"/>
</clipPath>
</defs>
</svg>
