<svg width="32" height="32" viewBox="0 0 32 32" fill="none" xmlns="http://www.w3.org/2000/svg">
<path fill-rule="evenodd" clip-rule="evenodd" d="M30.8171 16.9426H20.0977L18.4317 30.6793C25.1629 29.5326 30.3601 23.885 30.8171 16.9426ZM0.990234 16.9426H14.7446L14.503 18.9353H1.25651C1.12459 18.2854 1.03483 17.6202 0.990234 16.9426ZM1.80799 20.9281C2.05147 21.617 2.344 22.2827 2.68141 22.921H14.0196L14.2613 20.9281H1.80799ZM5.74216 26.9066C5.08581 26.2978 4.48424 25.6308 3.94566 24.9138H13.7779L13.5362 26.9066H5.74216ZM8.44222 28.8994C9.85941 29.7175 11.4234 30.3097 13.085 30.6268L13.2945 28.8994H8.44222ZM30.5508 12.957H1.25651C2.6413 6.1348 8.67283 1 15.9037 1C23.1345 1 29.166 6.1348 30.5508 12.957Z" fill="#1A3D75"/>
</svg>
