<svg width="184" height="35" xmlns="http://www.w3.org/2000/svg"><path fill-rule="evenodd" clip-rule="evenodd" d="M34.873 19H21.737l-1.934 15.841C27.86 33.752 34.179 27.177 34.873 19ZM0 19h15.692l-.244 2H.287A17.49 17.49 0 0 1 0 19Zm1.184 5c.275.69.594 1.357.952 2h12.702l.244-2H1.184ZM6.3 31a17.605 17.605 0 0 1-2.055-2h10.226l-.244 2H6.3Zm3.005 2a17.383 17.383 0 0 0 4.48 1.619L13.984 33H9.305Zm25.282-19H.287C1.908 6.012 8.97 0 17.437 0c8.466 0 15.528 6.012 17.15 14Z"/><path d="M60.236 9.488v2.808h-5.902V28h-3.25V12.296h-5.902V9.488h15.054Zm2.178 0h8.034c1.993 0 3.562.477 4.706 1.43 1.161.936 1.742 2.34 1.742 4.212 0 1.768-.537 3.172-1.612 4.212-1.075 1.023-2.54 1.534-4.394 1.534h-5.226V28h-3.25V9.488Zm3.25 2.704v6.058h4.524c2.357 0 3.536-1.014 3.536-3.042 0-2.01-1.274-3.016-3.822-3.016h-4.238Zm20.56-2.73L93.374 28H89.89l-1.768-4.914H80.79L78.97 28h-3.354l7.15-18.538h3.458Zm1.04 11.18-2.756-7.8-2.886 7.8h5.642ZM110.04 9.488V28h-3.25v-8.32h-8.476V28h-3.25V9.488h3.25v7.358h8.476V9.488h3.25Zm19.7 11.466c-.174 2.27-.988 4.09-2.444 5.46-1.439 1.352-3.311 2.028-5.616 2.028-2.618 0-4.715-.884-6.292-2.652-1.578-1.768-2.366-4.117-2.366-7.046 0-1.768.338-3.371 1.014-4.81a8.287 8.287 0 0 1 3.042-3.51c1.352-.901 2.938-1.352 4.758-1.352 1.958 0 3.666.546 5.122 1.638 1.456 1.075 2.331 2.635 2.626 4.68h-3.224c-.226-1.11-.746-1.976-1.56-2.6-.815-.641-1.82-.962-3.016-.962-1.231 0-2.28.347-3.146 1.04a5.753 5.753 0 0 0-1.82 2.574c-.347 1.005-.52 2.106-.52 3.302 0 .901.104 1.75.312 2.548.208.797.52 1.534.936 2.21a4.647 4.647 0 0 0 1.69 1.586c.728.399 1.568.598 2.522.598 2.756 0 4.333-1.577 4.732-4.732h3.25Zm17.827-11.466V28h-3.25V12.296h-8.476V28h-3.25V9.488h14.976ZM151.355 28V9.488h3.25v14.196l7.956-14.196h3.77V28h-3.25V13.804L155.125 28h-3.77Zm32.102-18.512v2.808h-5.902V28h-3.25V12.296h-5.902V9.488h15.054Z"/></svg>