<svg width="105" height="22" fill="none" xmlns="http://www.w3.org/2000/svg"><path d="M34.515 9.095c.863 0 1.62.157 2.268.47.648.314 1.148.754 1.498 1.319.356.56.534 1.202.534 1.93 0 .726-.178 1.373-.534 1.937-.35.56-.85.997-1.498 1.31-.649.314-1.405.471-2.268.471h-4.158v4.33h-2.07V9.096h6.228Zm-.078 5.648c.466 0 .868-.078 1.208-.235.345-.157.61-.38.792-.667.184-.293.275-.635.275-1.027 0-.393-.091-.733-.275-1.02a1.768 1.768 0 0 0-.792-.675c-.34-.157-.742-.235-1.208-.235h-4.08v3.86h4.08Zm11.27-2.98c.21 0 .424.015.644.046.22.027.413.063.58.11v1.789a5.076 5.076 0 0 0-.753-.141 6.582 6.582 0 0 0-.769-.047c-.58 0-1.095.128-1.545.384-.45.256-.803.636-1.06 1.138-.25.497-.376 1.098-.376 1.804v4.017h-2.04v-6.041l-.533-2.84h2.04l.4 2.448c.277-.827.703-1.478 1.279-1.954.58-.476 1.291-.714 2.134-.714Zm12.559.219-.47 4.44.47 4.44h-2.103l-.227-2.204c-.46.764-1.044 1.36-1.75 1.789a4.458 4.458 0 0 1-2.338.636c-.857 0-1.624-.194-2.298-.581a4.09 4.09 0 0 1-1.577-1.648c-.377-.706-.565-1.516-.565-2.432 0-.915.188-1.726.565-2.432a4.037 4.037 0 0 1 1.577-1.64c.674-.392 1.44-.588 2.298-.588.858 0 1.637.212 2.338.636.706.423 1.29 1.017 1.75 1.78l.227-2.196h2.103Zm-5.931 7.469c.549 0 1.064-.126 1.545-.377a4.154 4.154 0 0 0 1.287-1.067c.377-.455.677-.983.902-1.585a5.487 5.487 0 0 0-.902-1.577c-.371-.455-.8-.81-1.287-1.067a3.239 3.239 0 0 0-1.545-.384c-.55 0-1.041.13-1.475.392a2.694 2.694 0 0 0-1.02 1.075c-.24.455-.36.976-.36 1.561 0 .586.12 1.11.36 1.57.246.46.586.818 1.02 1.074.434.257.926.385 1.475.385Zm17.089-1.287c0 .601-.17 1.122-.51 1.561-.34.434-.853.77-1.538 1.004-.68.236-1.525.354-2.534.354-1.046 0-1.959-.134-2.738-.4-.774-.267-1.376-.641-1.805-1.122a2.713 2.713 0 0 1-.682-1.695h2.071c.063.34.233.635.51.886.277.252.643.448 1.098.589.455.136.976.204 1.562.204.852 0 1.49-.102 1.914-.306.429-.204.643-.515.643-.934a.648.648 0 0 0-.188-.478c-.126-.126-.338-.228-.636-.306-.292-.079-.703-.142-1.231-.189l-1.742-.157c-1.329-.115-2.283-.407-2.864-.878-.58-.47-.87-1.057-.87-1.758 0-.59.185-1.093.557-1.506.371-.418.891-.735 1.56-.95.676-.213 1.46-.32 2.354-.32.91 0 1.729.127 2.456.384.727.256 1.305.614 1.734 1.075.429.455.67.978.722 1.569h-2.072a1.415 1.415 0 0 0-.392-.722c-.209-.225-.528-.408-.957-.55-.424-.146-.957-.22-1.6-.22-.738 0-1.313.098-1.726.291-.408.194-.612.468-.612.824 0 .246.133.447.4.604.267.157.724.264 1.373.322l2.243.204c1.271.12 2.171.402 2.7.847.533.44.8 1.03.8 1.773Zm12.04-6.182-.47 4.44.47 4.44h-2.102l-.227-2.204c-.46.764-1.044 1.36-1.75 1.789a4.459 4.459 0 0 1-2.338.636c-.858 0-1.624-.194-2.299-.581a4.09 4.09 0 0 1-1.577-1.648c-.376-.706-.564-1.516-.564-2.432 0-.915.188-1.726.564-2.432a4.037 4.037 0 0 1 1.577-1.64c.675-.392 1.441-.588 2.3-.588.857 0 1.636.212 2.337.636.706.423 1.29 1.017 1.75 1.78l.227-2.196h2.103Zm-5.93 7.469c.549 0 1.064-.126 1.545-.377a4.156 4.156 0 0 0 1.287-1.067c.376-.455.677-.983.902-1.585a5.489 5.489 0 0 0-.902-1.577c-.372-.455-.8-.81-1.287-1.067a3.238 3.238 0 0 0-1.545-.384c-.55 0-1.041.13-1.475.392a2.694 2.694 0 0 0-1.02 1.075c-.24.455-.361.976-.361 1.561 0 .586.12 1.11.36 1.57.246.46.587.818 1.02 1.074.435.257.926.385 1.475.385Zm7.894 1.412v-8.944l1.02.188 1.02-.188v8.944h-2.04Zm1.02-10.058c-.393 0-.714-.107-.965-.322a1.061 1.061 0 0 1-.37-.839c0-.345.124-.625.37-.84.25-.214.572-.321.965-.321.392 0 .71.107.957.322.25.214.376.494.376.839s-.125.625-.376.84c-.246.214-.565.321-.957.321Zm15.558.957c.779 0 1.446.168 2 .502.555.33.976.811 1.264 1.444.292.627.439 1.375.439 2.244v4.91h-2.04v-4.58c0-.927-.196-1.627-.588-2.103-.393-.482-.965-.722-1.718-.722-.529 0-.992.128-1.389.384a2.46 2.46 0 0 0-.91 1.075c-.214.466-.322 1.004-.322 1.616v4.33h-2.04v-4.58c0-.927-.196-1.627-.588-2.103-.392-.482-.965-.722-1.718-.722-.528 0-.991.128-1.389.384a2.46 2.46 0 0 0-.91 1.075c-.214.466-.321 1.004-.321 1.616v4.33h-2.04v-5.977l-.534-2.903h2.04l.345 2.087c.346-.738.819-1.305 1.42-1.703a3.596 3.596 0 0 1 2.048-.604c.873 0 1.603.212 2.189.636.59.418 1.01 1.02 1.255 1.804.335-.78.808-1.38 1.42-1.804a3.579 3.579 0 0 1 2.087-.636Z" fill="#FEFEFE"/><path fill-rule="evenodd" clip-rule="evenodd" d="M21.084 12.913v5.923a.292.292 0 0 1-.298.286H2.26a.292.292 0 0 1-.298-.286V7.15c0-.148.124-.286.298-.286h5.045c.486-.701 1.04-1.359 1.656-1.961h-6.7A2.253 2.253 0 0 0 0 7.15v11.686a2.253 2.253 0 0 0 2.26 2.248h18.526a2.253 2.253 0 0 0 2.26-2.248v-7.722a13.429 13.429 0 0 1-1.962 1.799Z" fill="#FEFEFE"/><path d="m14.86 3.895 8.448-2.654c1.082 4.93-1.79 9.965-6.788 11.535L8.073 15.43C6.99 10.5 9.863 5.465 14.86 3.895Z" stroke="#FEFEFE" stroke-width="1.961"/></svg>