<svg width="101" height="101" fill="none" xmlns="http://www.w3.org/2000/svg"><path fill="#fff" d="M0 0h101v101H0z"/><path d="m81.843 78.106-2.181-12.804c-.908-5.332-5.512-9.203-10.947-9.203h-36.43c-5.435 0-10.039 3.871-10.947 9.203l-2.18 12.803a10.99 10.99 0 0 0 2.465 8.978A11.106 11.106 0 0 0 30.104 91h40.79c3.276 0 6.368-1.428 8.483-3.919a10.989 10.989 0 0 0 2.466-8.975ZM65.283 45.536c7.94-7.9 7.94-20.71 0-28.61-7.94-7.901-20.813-7.901-28.753 0-7.94 7.9-7.94 20.71 0 28.61 7.94 7.901 20.813 7.901 28.753 0Z" fill="#325573"/></svg>