<svg width="101" height="101" fill="none" xmlns="http://www.w3.org/2000/svg"><g clip-path="url(#a)"><path d="M101 0H0v101h101V0Z" fill="#325573"/><path fill-rule="evenodd" clip-rule="evenodd" d="M51 18c-8.93 0-16.17 7.24-16.17 16.17 0 8.93 7.24 16.169 16.17 16.169 8.93 0 16.169-7.24 16.169-16.17 0-8.93-7.24-16.169-16.17-16.169ZM41.298 53.572c-5.377 0-10.548 2.453-13.578 6.146-1.538 1.874-2.62 4.193-2.713 6.763-.097 2.625.851 5.187 2.805 7.423C32.574 79.35 40.177 82.677 51 82.677c10.823 0 18.426-3.326 23.188-8.773 1.954-2.236 2.901-4.798 2.805-7.422-.094-2.57-1.175-4.89-2.713-6.764-3.03-3.693-8.201-6.146-13.578-6.146H41.298Z" fill="#FEFEFE"/></g><defs><clipPath id="a"><path fill="#fff" d="M0 0h101v101H0z"/></clipPath></defs></svg>